<svg width="43" height="37" viewBox="0 0 43 37" fill="none" xmlns="http://www.w3.org/2000/svg">
<g clip-path="url(#clip0_401_81)">
<path d="M18.319 32.8368C16.8259 32.6282 15.463 32.4859 14.1187 32.2416C10.43 31.5728 6.89601 30.463 3.79227 28.2243C2.61194 27.3729 1.57116 26.3686 0.845522 25.0773C-0.468538 22.7367 -0.245264 19.9905 1.47581 17.7696C1.93863 17.1732 2.51426 16.6538 3.09687 16.1724C3.78413 15.6032 4.63071 15.7289 5.09354 16.3834C5.5366 17.0107 5.32379 17.7672 4.72026 18.3719C4.10974 18.9826 3.52016 19.6597 3.09919 20.4114C2.32587 21.7904 2.6666 23.109 3.60272 24.3042C4.81096 25.8469 6.43086 26.8085 8.15542 27.5947C10.9359 28.8622 13.8722 29.5381 16.8922 29.8713C17.2364 29.9092 17.5783 29.965 17.9958 29.9092C17.5132 29.416 17.0189 28.9334 16.5503 28.4259C15.9502 27.7761 15.9723 26.9105 16.577 26.3793C17.1503 25.8765 17.8841 25.924 18.5004 26.5394C19.6203 27.6599 20.6902 28.8338 21.8437 29.9175C23.2659 31.2539 23.0915 31.944 21.8112 33.1523C20.6599 34.2372 19.5912 35.4135 18.4737 36.5364C17.9737 37.0403 17.3085 37.1316 16.7689 36.8162C16.2817 36.5304 16.0014 35.9376 16.1654 35.3388C16.2491 35.034 16.4514 34.7364 16.6689 34.5005C17.1759 33.9467 17.7236 33.4309 18.319 32.8368Z" fill="white"/>
<path d="M28.3673 15.047C28.3673 13.764 28.358 12.4799 28.3696 11.1969C28.3859 9.36848 29.529 8.21119 31.3256 8.19222C32.0804 8.18392 32.8362 8.18036 33.5909 8.19341C35.2841 8.22068 36.4505 9.37085 36.4679 11.0949C36.4935 13.7202 36.4958 16.3466 36.4644 18.9718C36.4423 20.8418 35.3295 21.9172 33.4875 21.9338C32.7327 21.9409 31.9769 21.9457 31.2222 21.9326C29.5267 21.9042 28.3905 20.7481 28.3696 19.0145C28.3533 17.6924 28.3661 16.3691 28.3661 15.0458C28.3661 15.047 28.3661 15.047 28.3673 15.047ZM31.0931 10.9728C31.0931 13.7391 31.0931 16.4355 31.0931 19.1651C31.985 19.1651 32.8432 19.1651 33.7061 19.1651C33.7061 16.4189 33.7061 13.7095 33.7061 10.9728C32.82 10.9728 31.9931 10.9728 31.0931 10.9728Z" fill="white"/>
<path d="M20.3576 10.9492C20.3576 11.8824 20.3576 12.7468 20.3576 13.7037C21.0902 13.7037 21.8205 13.7428 22.5462 13.6965C24.5463 13.5673 25.8336 14.9463 25.6941 16.9443C25.6452 17.6522 25.6894 18.366 25.6848 19.0775C25.672 20.6924 24.5986 21.8628 23.0264 21.9292C22.1171 21.9671 21.2042 21.9671 20.2948 21.9292C18.7424 21.8628 17.6539 20.7055 17.6481 19.132C17.6388 16.4451 17.6388 13.7582 17.6527 11.0713C17.662 9.37095 18.7307 8.25042 20.4041 8.20418C21.6821 8.1686 22.9613 8.17928 24.2405 8.19706C25.1208 8.20892 25.708 8.81721 25.6836 9.633C25.6604 10.4227 25.0894 10.9397 24.2009 10.9468C22.9427 10.9563 21.6856 10.9492 20.3576 10.9492ZM20.3692 16.4937C20.3692 17.3996 20.3692 18.2723 20.3692 19.1569C21.26 19.1569 22.1147 19.1569 22.9625 19.1569C22.9625 18.238 22.9625 17.3652 22.9625 16.4937C22.0764 16.4937 21.2356 16.4937 20.3692 16.4937Z" fill="white"/>
<path d="M12.2143 10.9396C10.8211 10.9396 9.5059 10.9645 8.19184 10.9313C7.09873 10.9041 6.4731 9.74084 7.11268 8.86695C7.35573 8.53613 7.8674 8.24325 8.26859 8.22783C10.0292 8.15906 11.7945 8.18277 13.5574 8.2053C14.3807 8.21597 14.9482 8.79106 14.9517 9.64243C14.9668 13.2578 14.9656 16.8743 14.9459 20.4896C14.9412 21.3706 14.3668 21.9256 13.5004 21.9339C11.7561 21.9505 10.0118 21.9517 8.26859 21.9327C7.47667 21.9244 6.86499 21.3019 6.85685 20.5655C6.84755 19.7948 7.46271 19.2066 8.30697 19.1995C9.39194 19.1912 10.4769 19.1995 11.563 19.2007C11.7712 19.2007 11.9782 19.2007 12.2189 19.2007C12.2189 18.2699 12.2189 17.4079 12.2189 16.4605C11.5758 16.4605 10.9432 16.4605 10.3106 16.4605C9.63266 16.4605 8.95353 16.4794 8.27557 16.4522C7.45806 16.419 6.86848 15.8308 6.8615 15.0897C6.85336 14.3071 7.44178 13.7249 8.29999 13.7095C9.40473 13.6894 10.5095 13.7 11.613 13.6965C11.8014 13.6965 11.9898 13.6965 12.2143 13.6965C12.2143 12.7586 12.2143 11.8977 12.2143 10.9396Z" fill="white"/>
<path d="M43.0004 21.8901C42.8922 24.3552 41.7189 26.0912 40.0525 27.5318C37.8546 29.4326 35.2811 30.6337 32.5239 31.3476C30.2819 31.9274 27.9782 32.2689 25.6966 32.6851C24.9303 32.825 24.2267 32.2701 24.1279 31.5349C24.0232 30.7571 24.4872 30.1393 25.3001 29.9887C27.2584 29.6259 29.2399 29.3603 31.1727 28.8848C33.7833 28.2409 36.2603 27.2259 38.3628 25.4437C39.1152 24.8058 39.7548 24.06 40.0804 23.0995C40.6118 21.5284 39.9327 19.6668 38.4139 18.4739C38.0023 18.1514 37.6488 17.8182 37.6406 17.2301C37.6336 16.6799 37.8523 16.2661 38.3058 16.0016C38.7582 15.7384 39.2477 15.7277 39.685 16.0277C41.4223 17.2206 42.5073 18.864 42.8818 20.9758C42.9434 21.3256 42.9736 21.6802 43.0004 21.8901Z" fill="white"/>
</g>
<defs>
<clipPath id="clip0_401_81">
<rect width="43" height="37" fill="white"/>
</clipPath>
</defs>
</svg>
